<svg width="20" height="24" viewBox="0 0 21 21" fill="none" xmlns="http://www.w3.org/2000/svg">
<path d="M20.5685 5.54172C20.5693 5.40463 20.5446 5.26874 20.4958 5.14182C20.447 5.01491 20.3751 4.89947 20.2842 4.80214L16.1274 0.385475C16.0358 0.288932 15.9271 0.212551 15.8077 0.160713C15.6882 0.108875 15.5603 0.0825988 15.4313 0.0833914C15.3023 0.0825988 15.1744 0.108875 15.0549 0.160713C14.9355 0.212551 14.8268 0.288932 14.7352 0.385475L11.9607 3.33339L1.24502 14.7188C1.15416 14.8161 1.08227 14.9316 1.03348 15.0585C0.984694 15.1854 0.959964 15.3213 0.96071 15.4584V19.8751C0.96071 20.1513 1.064 20.4163 1.24786 20.6116C1.43172 20.807 1.68109 20.9167 1.9411 20.9167H6.09796C6.23515 20.9247 6.37237 20.9019 6.50073 20.8498C6.62909 20.7978 6.74572 20.7177 6.84306 20.6146L17.4999 9.22922L20.2842 6.33339C20.3737 6.23243 20.4466 6.11624 20.4999 5.98964C20.5094 5.90661 20.5094 5.82267 20.4999 5.73964C20.5045 5.69115 20.5045 5.6423 20.4999 5.59381L20.5685 5.54172ZM5.696 18.8334H2.92149V15.8855L12.6568 5.54172L15.4313 8.48964L5.696 18.8334ZM16.8136 7.02089L14.0391 4.07297L15.4313 2.60422L18.196 5.54172L16.8136 7.02089Z" fill="#4E4F54"/>
</svg>
