<svg width="42" height="45" viewBox="0 0 42 45" fill="none" xmlns="http://www.w3.org/2000/svg">
<rect x="0.5" y="0.5" width="41" height="43.625" rx="3.5" fill="white" stroke="#E1E2E3"/>
<path d="M30.5687 17.5416C30.5695 17.4045 30.5447 17.2686 30.496 17.1417C30.4472 17.0148 30.3753 16.8994 30.2844 16.802L26.1276 12.3854C26.0359 12.2888 25.9273 12.2124 25.8079 12.1606C25.6884 12.1088 25.5605 12.0825 25.4315 12.0833C25.3025 12.0825 25.1745 12.1088 25.0551 12.1606C24.9356 12.2124 24.827 12.2888 24.7354 12.3854L21.9609 15.3333L11.2452 26.7187C11.1543 26.816 11.0825 26.9315 11.0337 27.0584C10.9849 27.1853 10.9601 27.3212 10.9609 27.4583V31.8749C10.9609 32.1512 11.0642 32.4162 11.248 32.6115C11.4319 32.8069 11.6813 32.9166 11.9413 32.9166H16.0981C16.2353 32.9245 16.3726 32.9017 16.5009 32.8497C16.6293 32.7977 16.7459 32.7175 16.8432 32.6145L27.5001 21.2291L30.2844 18.3333C30.3739 18.2323 30.4468 18.1161 30.5001 17.9895C30.5096 17.9065 30.5096 17.8226 30.5001 17.7395C30.5047 17.691 30.5047 17.6422 30.5001 17.5937L30.5687 17.5416ZM15.6962 30.8333H12.9217V27.8854L22.657 17.5416L25.4315 20.4895L15.6962 30.8333ZM26.8138 19.0208L24.0393 16.0729L25.4315 14.6041L28.1962 17.5416L26.8138 19.0208Z" fill="#4E4F54"/>
</svg>
