<svg width="20" height="24" viewBox="0 0 20 24" fill="none" xmlns="http://www.w3.org/2000/svg">
<path d="M7.89981 18.6938C8.17828 18.6938 8.44535 18.5762 8.64227 18.367C8.83918 18.1578 8.94981 17.874 8.94981 17.5781V10.8844C8.94981 10.5885 8.83918 10.3047 8.64227 10.0955C8.44535 9.88629 8.17828 9.76875 7.89981 9.76875C7.62133 9.76875 7.35426 9.88629 7.15734 10.0955C6.96043 10.3047 6.8498 10.5885 6.8498 10.8844V17.5781C6.8498 17.874 6.96043 18.1578 7.15734 18.367C7.35426 18.5762 7.62133 18.6938 7.89981 18.6938ZM18.3998 5.30625H14.1998V4.19063C14.1998 3.30298 13.8679 2.45169 13.2772 1.82403C12.6865 1.19637 11.8852 0.84375 11.0498 0.84375H8.94981C8.11437 0.84375 7.31316 1.19637 6.72242 1.82403C6.13168 2.45169 5.79981 3.30298 5.79981 4.19063V5.30625H1.5998C1.32133 5.30625 1.05426 5.42379 0.857343 5.63301C0.660429 5.84223 0.549805 6.12599 0.549805 6.42188C0.549805 6.71776 0.660429 7.00152 0.857343 7.21074C1.05426 7.41996 1.32133 7.5375 1.5998 7.5375H2.6498V19.8094C2.6498 20.697 2.98168 21.5483 3.57242 22.176C4.16316 22.8036 4.96437 23.1563 5.79981 23.1563H14.1998C15.0352 23.1563 15.8365 22.8036 16.4272 22.176C17.0179 21.5483 17.3498 20.697 17.3498 19.8094V7.5375H18.3998C18.6783 7.5375 18.9454 7.41996 19.1423 7.21074C19.3392 7.00152 19.4498 6.71776 19.4498 6.42188C19.4498 6.12599 19.3392 5.84223 19.1423 5.63301C18.9454 5.42379 18.6783 5.30625 18.3998 5.30625ZM7.89981 4.19063C7.89981 3.89474 8.01043 3.61098 8.20734 3.40176C8.40426 3.19254 8.67133 3.075 8.94981 3.075H11.0498C11.3283 3.075 11.5954 3.19254 11.7923 3.40176C11.9892 3.61098 12.0998 3.89474 12.0998 4.19063V5.30625H7.89981V4.19063ZM15.2498 19.8094C15.2498 20.1053 15.1392 20.389 14.9423 20.5982C14.7454 20.8075 14.4783 20.925 14.1998 20.925H5.79981C5.52133 20.925 5.25426 20.8075 5.05734 20.5982C4.86043 20.389 4.7498 20.1053 4.7498 19.8094V7.5375H15.2498V19.8094ZM12.0998 18.6938C12.3783 18.6938 12.6454 18.5762 12.8423 18.367C13.0392 18.1578 13.1498 17.874 13.1498 17.5781V10.8844C13.1498 10.5885 13.0392 10.3047 12.8423 10.0955C12.6454 9.88629 12.3783 9.76875 12.0998 9.76875C11.8213 9.76875 11.5543 9.88629 11.3573 10.0955C11.1604 10.3047 11.0498 10.5885 11.0498 10.8844V17.5781C11.0498 17.874 11.1604 18.1578 11.3573 18.367C11.5543 18.5762 11.8213 18.6938 12.0998 18.6938Z" fill="#4E4F54"/>
</svg>
