<svg width="42" height="46" viewBox="0 0 42 46" fill="none" xmlns="http://www.w3.org/2000/svg">
<rect x="0.5" y="1.1875" width="41" height="43.625" rx="3.5" fill="white" stroke="#E1E2E3"/>
<path d="M18.9 29.6938C19.1785 29.6938 19.4456 29.5762 19.6425 29.367C19.8394 29.1578 19.95 28.874 19.95 28.5781V21.8844C19.95 21.5885 19.8394 21.3047 19.6425 21.0955C19.4456 20.8863 19.1785 20.7688 18.9 20.7688C18.6216 20.7688 18.3545 20.8863 18.1576 21.0955C17.9607 21.3047 17.85 21.5885 17.85 21.8844V28.5781C17.85 28.874 17.9607 29.1578 18.1576 29.367C18.3545 29.5762 18.6216 29.6938 18.9 29.6938ZM29.4 16.3063H25.2V15.1906C25.2 14.303 24.8682 13.4517 24.2774 12.824C23.6867 12.1964 22.8855 11.8438 22.05 11.8438H19.95C19.1146 11.8438 18.3134 12.1964 17.7227 12.824C17.1319 13.4517 16.8 14.303 16.8 15.1906V16.3063H12.6C12.3216 16.3063 12.0545 16.4238 11.8576 16.633C11.6607 16.8422 11.55 17.126 11.55 17.4219C11.55 17.7178 11.6607 18.0015 11.8576 18.2107C12.0545 18.42 12.3216 18.5375 12.6 18.5375H13.65V30.8094C13.65 31.697 13.9819 32.5483 14.5727 33.176C15.1634 33.8036 15.9646 34.1563 16.8 34.1563H25.2C26.0355 34.1563 26.8367 33.8036 27.4274 33.176C28.0182 32.5483 28.35 31.697 28.35 30.8094V18.5375H29.4C29.6785 18.5375 29.9456 18.42 30.1425 18.2107C30.3394 18.0015 30.4501 17.7178 30.4501 17.4219C30.4501 17.126 30.3394 16.8422 30.1425 16.633C29.9456 16.4238 29.6785 16.3063 29.4 16.3063ZM18.9 15.1906C18.9 14.8947 19.0107 14.611 19.2076 14.4018C19.4045 14.1925 19.6716 14.075 19.95 14.075H22.05C22.3285 14.075 22.5956 14.1925 22.7925 14.4018C22.9894 14.611 23.1 14.8947 23.1 15.1906V16.3063H18.9V15.1906ZM26.25 30.8094C26.25 31.1053 26.1394 31.389 25.9425 31.5982C25.7456 31.8075 25.4785 31.925 25.2 31.925H16.8C16.5216 31.925 16.2545 31.8075 16.0576 31.5982C15.8607 31.389 15.75 31.1053 15.75 30.8094V18.5375H26.25V30.8094ZM23.1 29.6938C23.3785 29.6938 23.6456 29.5762 23.8425 29.367C24.0394 29.1578 24.15 28.874 24.15 28.5781V21.8844C24.15 21.5885 24.0394 21.3047 23.8425 21.0955C23.6456 20.8863 23.3785 20.7688 23.1 20.7688C22.8216 20.7688 22.5545 20.8863 22.3576 21.0955C22.1607 21.3047 22.05 21.5885 22.05 21.8844V28.5781C22.05 28.874 22.1607 29.1578 22.3576 29.367C22.5545 29.5762 22.8216 29.6938 23.1 29.6938Z" fill="#4E4F54"/>
</svg>
